<svg version="1.1" id="Layer_1" xmlns="http://www.w3.org/2000/svg" xmlns:xlink="http://www.w3.org/1999/xlink" x="0" y="0" viewBox="0 0 915.55 207.04" style="enable-background:new 0 0 915.55 207.04" xml:space="preserve"><style>.st0{clip-path:url(#SVGID_2_);fill:#fff}</style><defs><path id="SVGID_1_" d="M0 0h915.55v207.04H0z"/></defs><clipPath id="SVGID_2_"><use xlink:href="#SVGID_1_" style="overflow:visible"/></clipPath><path class="st0" d="M0 169.25c2.63-.45 6.32-.78 11.51-.78 5.25 0 9.05 1.01 11.57 3.07 2.4 1.84 3.97 4.98 3.97 8.66 0 3.75-1.17 6.88-3.41 8.94-2.91 2.68-7.27 3.97-12.3 3.97-1.12 0-2.12-.06-2.91-.22v13.53H0v-37.17zm8.44 17.1c.73.17 1.62.22 2.85.22 4.53 0 7.32-2.29 7.32-6.09 0-3.46-2.35-5.53-6.65-5.53-1.73 0-2.91.11-3.52.28v11.12zM82.78 190.49H68.92v8.94H84.4v6.99H60.42v-37.67h23.2v6.98h-14.7v7.83h13.86zM118.17 168.75h8.49v30.52h14.98v7.15h-23.47zM188.59 207.04c-11.12 0-17.72-8.44-17.72-19.17 0-11.29 7.27-19.73 18.33-19.73 11.57 0 17.88 8.66 17.88 19.06 0 12.41-7.43 19.84-18.44 19.84h-.05zm.4-6.77c5.76 0 9.05-5.42 9.05-12.8 0-6.76-3.19-12.58-9.05-12.58-5.87 0-9.17 5.7-9.17 12.74 0 7.1 3.41 12.63 9.11 12.63h.06zM279.82 169.31c2.24-.45 6.71-.84 11.01-.84 5.2 0 8.38.5 11.12 2.12 2.63 1.4 4.47 3.97 4.47 7.43 0 3.3-1.96 6.37-6.15 7.99v.11c4.3 1.12 7.49 4.42 7.49 9.28 0 3.46-1.57 6.15-3.91 7.99-2.74 2.18-7.32 3.41-14.81 3.41-4.19 0-7.32-.28-9.22-.56v-36.93zm8.44 14.36h2.79c4.53 0 6.88-1.85 6.88-4.64 0-2.85-2.18-4.36-6.04-4.36-1.9 0-2.96.11-3.63.28v8.72zm0 16.71c.84.17 1.84.17 3.3.17 3.86 0 7.27-1.51 7.27-5.48 0-3.8-3.41-5.31-7.66-5.31h-2.91v10.62zM341.47 169.31c2.74-.5 6.76-.84 11.35-.84 5.59 0 9.5.84 12.18 3.02 2.29 1.79 3.52 4.42 3.52 7.88 0 4.75-3.41 8.05-6.65 9.22v.17c2.63 1.06 4.08 3.52 5.03 6.99 1.17 4.3 2.29 9.22 3.02 10.68h-8.72c-.56-1.06-1.51-4.14-2.57-8.77-1.06-4.75-2.68-5.98-6.2-6.04h-2.51v14.81h-8.44v-37.12zm8.44 16.15h3.35c4.25 0 6.76-2.12 6.76-5.42 0-3.41-2.35-5.2-6.26-5.2-2.07 0-3.24.11-3.86.28v10.34zM411.23 196.75l-2.63 9.67h-8.83l11.52-37.67h11.12l11.74 37.67h-9.17l-2.91-9.67h-10.84zm9.56-6.37-2.35-7.99c-.61-2.24-1.29-5.09-1.85-7.27h-.17c-.5 2.24-1.12 5.09-1.68 7.27l-2.29 7.99h8.34zM467.35 197.7c2.23 1.17 5.81 2.35 9.44 2.35 3.91 0 5.98-1.62 5.98-4.14 0-2.29-1.79-3.69-6.32-5.25-6.26-2.24-10.4-5.7-10.4-11.23 0-6.43 5.42-11.29 14.25-11.29 4.3 0 7.38.84 9.61 1.9l-1.9 6.82c-1.45-.73-4.19-1.79-7.83-1.79-3.69 0-5.48 1.73-5.48 3.63 0 2.4 2.07 3.46 6.99 5.37 6.65 2.46 9.73 5.92 9.73 11.29 0 6.32-4.81 11.68-15.15 11.68-4.3 0-8.55-1.17-10.67-2.35l1.75-6.99zM525.26 168.75h8.49v37.67h-8.49zM569.09 168.75h8.49v30.52h14.98v7.15h-23.47zM3.19 137.78 46.48 12.72h101.61c7.61 0 14 1.77 19 5.26 5.21 3.64 8.39 8.48 9.44 14.39.72 4.03.33 8.15-1.15 12.26l-10.46 30.26c-2.82 8.09-8.01 15.06-15.43 20.71-7.5 5.72-16.41 8.61-26.47 8.61H62.29l-11.51 33.57H3.19zm115.96-68.36 7.15-20.6H81.42l-2.64.04h-7.06l7.47 6.76-4.78 13.8h44.74zM196.99 137.78c-10.35 0-18.31-3.04-23.66-9.04-5.52-6.18-6.77-14.09-3.63-22.86l4.45-13h47.68l-3.2 8.79h44.99l3.29-9.52h-54.14c-10.36 0-18.32-3.04-23.66-9.03-5.52-6.18-6.78-14.09-3.63-22.86l6.17-18.19c2.8-8.21 7.99-15.21 15.44-20.83 7.5-5.65 16.41-8.52 26.47-8.52h70.12c10.36 0 18.29 3.04 23.58 9.06 5.5 6.25 6.75 13.92 3.73 22.78l-4.46 13.06H279l2.93-8.8H237l-.31.03h-8.57l6.64 6.01-1.2 3.47h54.34c10.35 0 18.31 3.04 23.66 9.03 5.52 6.19 6.77 14.1 3.63 22.87l-6.17 18.19c-2.94 8.21-7.96 15.17-14.95 20.76-7.12 5.7-15.86 8.59-25.96 8.59h-71.12zM315.25 137.78l43.28-125.06h98c10.36 0 18.3 3.04 23.58 9.06 5.49 6.25 6.75 13.92 3.73 22.78l-21.99 63.88c-2.95 8.23-8.16 15.21-15.52 20.8-7.44 5.66-16.31 8.53-26.39 8.53H315.25zm101.21-36.1 18.28-52.86h-41.03l-2.87.04h-8.79l8.79 7.96-15.51 44.86h41.13zM465.68 137.78l43.28-125.06h96.99c7.64 0 14.06 1.53 19.08 4.54 5.41 3.26 8.67 7.85 9.7 13.64.61 3.43.42 7.32-.57 11.57-.94 4.01-2.35 8.03-4.21 11.95-1.89 3.97-4.18 7.63-6.84 10.88a38.99 38.99 0 0 1-4.37 4.62c2.85 3.17 4.73 7.23 5.6 12.13.99 5.55.55 11.65-1.29 18.12-1.81 6.33-4.77 12.33-8.79 17.84-4.04 5.53-9.1 10.22-15.04 13.95-6.14 3.86-13.08 5.81-20.62 5.81H465.68zm100.65-36.1c2.07 0 4-.6 5.9-1.82 1.73-1.12 2.82-2.34 3.22-3.62l1-2.76c.28-.96.21-1.49.19-1.58-.1-.54-.27-1.54-3.66-1.54h-43.36l-2.66.03h-2.26l3.81 3.45-2.73 7.83h40.55zm7.62-41.88c2.07 0 4-.6 5.9-1.83 1.79-1.16 2.92-2.43 3.43-3.89l.8-2.28c.14-.35.18-.64.09-1.14-.15-.85-.36-2.01-3.74-2.01h-36.39l-2.82.08h-4.09l5.23 4.74-2.17 6.34h33.76z"/><path d="m661.91 19.88-34.77 156.61s39.12 42.04 148.32-7.9c0 0 73.01-28.78 105.32 5.75l34.77-156.61s-17.97-39.09-122.08-1.19c0 0-89.14 46.88-131.56 3.34" style="clip-path:url(#SVGID_2_);fill:#009c49"/><path d="M657.87 39.82s40.57 58.71 109.16 24.95c76.84-37.82 97.61 5.02 104.74 19.3 0 0-50.76-14.17-107.74 37.9-42.11 38.48-84.89 58.33-135.78 49.91l29.62-132.06z" style="clip-path:url(#SVGID_2_);fill:#fde000"/><path d="M658.08 35.85c35.66-.09 58.15 28.73 50.24 64.36-7.91 35.64-43.23 64.6-78.89 64.7" style="clip-path:url(#SVGID_2_);fill:#263470"/><path class="st0" d="M646.31 88.84s15.27-13.24 40.22 3.25c0 0 24.11 20.26 48.89 10.41 0 0-32.74 14.77-44.59 5.52-13.05-10.19-34.64-12.97-48.61-.89l4.09-18.29z"/></svg>